<svg width="16" height="16" viewBox="0 0 16 16" fill="none" xmlns="http://www.w3.org/2000/svg">
    <path d="M15.6348 2.62506C15.3914 2.39887 15.1027 2.28575 14.7694 2.28575H13.5388V1.42858C13.5388 1.0358 13.388 0.699467 13.0868 0.419705C12.7853 0.139943 12.4233 0 12.0001 0H11.3849C10.9617 0 10.5996 0.139944 10.2983 0.419737C9.99689 0.699467 9.84625 1.03583 9.84625 1.42861V2.28579H6.15409V1.42861C6.15409 1.03583 6.00338 0.699499 5.70206 0.419737C5.4008 0.139944 5.03862 0 4.61546 0H4.00012C3.57705 0 3.21484 0.139944 2.91352 0.419737C2.61226 0.699467 2.46152 1.03583 2.46152 1.42861V2.28579H1.23084C0.897428 2.28579 0.609006 2.3989 0.365411 2.62509C0.121815 2.85125 0 3.11919 0 3.42869V14.8572C0 15.1665 0.121815 15.4344 0.365411 15.6607C0.608973 15.8869 0.897395 16 1.23084 16H14.7692C15.1025 16 15.3912 15.8869 15.6345 15.6607C15.8782 15.4345 16 15.1665 16 14.8572V3.42866C16 3.11907 15.8783 2.85125 15.6348 2.62506ZM11.0772 1.42871C11.0772 1.3453 11.1058 1.27679 11.1634 1.22334C11.221 1.16983 11.2948 1.14303 11.3847 1.14303H11.9999C12.0898 1.14303 12.1634 1.16974 12.2212 1.22334C12.2788 1.27688 12.3076 1.3454 12.3076 1.42871V4.00004C12.3076 4.08341 12.2788 4.1518 12.2212 4.2054C12.1633 4.25885 12.0898 4.28571 11.9999 4.28571H11.3847C11.2948 4.28571 11.221 4.25897 11.1634 4.2054C11.1058 4.15177 11.0772 4.08341 11.0772 4.00004V1.42871ZM3.69247 1.42871C3.69247 1.3453 3.72126 1.27679 3.77895 1.22334C3.83668 1.16983 3.91033 1.14303 4.00012 1.14303H4.61546C4.70528 1.14303 4.77907 1.16974 4.83662 1.22334C4.89425 1.27688 4.92318 1.3454 4.92318 1.42871V4.00004C4.92318 4.08341 4.89438 4.1519 4.83662 4.2054C4.77893 4.25885 4.70528 4.28571 4.61546 4.28571H4.00012C3.91033 4.28571 3.83658 4.25897 3.77895 4.2054C3.7214 4.15177 3.69247 4.08341 3.69247 4.00004V1.42871ZM14.7692 14.8571H1.23084V5.71432H14.7692V14.8571Z" fill="#7C6F5A"/>
</svg>
