<svg width="26" height="22" viewBox="0 0 26 22" fill="none" xmlns="http://www.w3.org/2000/svg">
    <g >
        <path d="M23.1155 0.296761C22.7441 -0.101721 22.1392 -0.096109 21.7625 0.296761L18.3668 3.88871C14.1593 1.86824 9.67066 2.36213 5.38891 5.31988C2.20015 7.51995 0.263545 10.2869 0.183958 10.4047C-0.0707184 10.7752 -0.0601069 11.2803 0.210487 11.6395C2.02506 13.9967 3.92452 15.8319 5.86643 17.1116L2.87929 20.2714C2.50788 20.6642 2.50788 21.3041 2.87929 21.7025C3.06499 21.899 3.30905 22 3.55312 22C3.79718 22 4.04125 21.899 4.22695 21.7025L23.1155 1.72793C23.4869 1.33506 23.4869 0.695243 23.1155 0.296761ZM10.6363 12.066C10.4984 11.7349 10.4294 11.3757 10.4294 10.9997C10.4294 10.2756 10.6947 9.59093 11.1828 9.07459C11.9468 8.2664 13.077 8.07558 14.0108 8.49651L10.6363 12.066ZM15.4221 7.00922C13.6871 5.83061 11.3473 6.04388 9.83514 7.64342C8.98622 8.54141 8.52462 9.73124 8.52462 10.994C8.52462 11.9145 8.77399 12.7956 9.23559 13.5533L7.26715 15.6355C5.54278 14.5804 3.84494 13.0201 2.19484 10.9828C2.90051 10.1073 4.39143 8.41794 6.43415 7.00922C9.96779 4.57343 13.4855 4.04586 16.913 5.43213L15.4221 7.00922Z" fill="#7C6F5A"/>
        <path d="M25.7895 10.3598C24.4789 8.65361 23.1207 7.21683 21.7412 6.07751C21.322 5.73515 20.7225 5.81372 20.3935 6.25149C20.0699 6.68926 20.1441 7.32346 20.558 7.67143C21.651 8.57504 22.744 9.69752 23.8051 11.0108C23.179 11.7853 21.9587 13.1772 20.3033 14.4512C17.1145 16.9039 13.8939 17.7906 10.737 17.0835C10.2224 16.9656 9.71301 17.3192 9.60689 17.8636C9.49547 18.408 9.82973 18.9468 10.3444 19.059C11.1668 19.2443 11.9945 19.3341 12.8275 19.3341C14.0796 19.3341 15.3424 19.1264 16.5999 18.7111C18.25 18.1667 19.8895 17.2687 21.4759 16.0452C24.15 13.9742 25.747 11.6899 25.816 11.5945C26.0707 11.2241 26.0601 10.719 25.7895 10.3598Z" fill="#7C6F5A"/>
    </g>
</svg>
