<svg width="191" height="48" viewBox="0 0 191 48" fill="none" xmlns="http://www.w3.org/2000/svg">
    <rect width="191" height="48" fill="black" fill-opacity="0"/>
    <rect width="129.202" height="36.252" fill="black" fill-opacity="0" transform="translate(61.7977 6.44657)"/>
    <path d="M76.1806 6.93688C74.9617 10.9819 73.621 14.9043 72.0364 18.8268C70.4518 14.7818 69.233 10.7367 68.2578 6.93688C66.1857 6.56915 63.8698 6.56915 61.7977 6.93688C63.2604 12.3302 65.5763 18.3365 68.136 23.6073C68.6235 23.7299 69.233 23.8524 69.8424 23.8524C68.8673 25.9362 67.7703 28.02 66.3076 30.2264C68.3797 30.7167 70.8175 30.7167 73.0115 30.2264C76.5463 23.2395 80.203 14.2915 82.5188 6.8143C80.4467 6.56915 78.1308 6.56915 76.1806 6.93688Z" fill="#341A11"/>
    <path d="M83.1283 30.349C84.9566 30.8393 87.1506 30.8393 88.979 30.349C89.1009 25.8137 89.3446 21.1558 89.7103 16.9882H89.8322C91.2949 20.0526 92.7575 23.6073 93.7326 27.0394C95.1953 27.5297 96.9018 27.5297 98.4863 27.0394C99.4614 23.7299 100.924 20.0526 102.265 16.9882C102.752 21.4009 102.874 26.0588 102.996 30.349C104.825 30.8393 106.897 30.8393 108.847 30.349C108.725 22.8718 107.994 14.2915 107.019 6.93688C105.068 6.44657 102.996 6.44657 101.046 6.93688C99.0958 10.8593 97.3893 15.5172 96.0485 20.0526C94.7078 15.3947 92.8794 10.8593 90.9292 6.93688C88.979 6.44657 86.785 6.44657 84.8347 6.93688C83.9815 14.2915 83.2502 22.8718 83.1283 30.349Z" fill="#341A11"/>
    <path d="M122.133 30.9619C124.449 30.9619 126.643 30.4716 128.349 29.6135C128.593 27.6523 127.984 25.6911 127.008 24.4653C126.033 24.9556 124.571 25.2008 122.986 25.2008C119.451 25.2008 117.745 22.9944 117.745 18.5816C117.745 14.2915 119.086 12.2077 121.889 12.2077C123.23 12.2077 124.205 12.8205 124.936 13.9237C126.643 13.1883 127.862 11.7174 128.349 9.87871C127.13 7.67234 124.693 6.44657 121.767 6.44657C115.673 6.44657 111.772 11.2271 111.772 18.9494C111.407 26.6717 115.307 30.9619 122.133 30.9619Z" fill="#341A11"/>
    <path d="M144.438 17.3559C146.754 14.1689 148.705 10.369 150.045 6.93688C148.095 6.44657 145.779 6.44657 143.829 6.93688C142.244 10.9819 139.929 15.0269 137.125 18.2139V6.93688C135.175 6.44657 132.981 6.44657 131.153 6.93688V30.349C133.103 30.8393 135.297 30.8393 137.125 30.349V25.2008C138.344 23.975 139.685 22.7492 140.66 21.4009C142.244 24.2202 143.707 27.4072 144.682 30.349C146.876 30.8393 149.192 30.8393 151.386 30.349C149.558 26.0588 147.12 21.4009 144.438 17.3559Z" fill="#341A11"/>
    <path d="M165.891 6.93688C164.672 10.9819 163.331 14.9043 161.747 18.8268C160.162 14.7818 158.943 10.7367 157.968 6.93688C155.896 6.56915 153.58 6.56915 151.508 6.93688C152.971 12.3302 155.287 18.3365 157.846 23.6073C158.334 23.7299 158.943 23.8524 159.553 23.8524C158.578 25.9362 157.481 28.02 156.018 30.2264C158.09 30.7167 160.528 30.7167 162.722 30.2264C166.257 23.2395 169.913 14.2915 172.229 6.8143C170.035 6.56915 167.841 6.56915 165.891 6.93688Z" fill="#341A11"/>
    <path d="M190.634 6.69173H181.249H175.154L173.448 22.3815C173.204 24.4653 172.473 25.3234 171.132 25.3234C170.523 25.3234 170.035 25.2008 169.669 25.0782C168.816 26.304 168.329 28.02 168.451 29.8587C169.669 30.4716 171.132 30.8393 172.473 30.8393C176.861 30.8393 179.055 28.5103 179.664 22.9944L180.883 12.0851H184.906V30.2264C186.856 30.7167 189.05 30.7167 190.878 30.2264V6.69173H190.634Z" fill="#341A11"/>
    <rect width="127.265" height="7.41588" fill="black" fill-opacity="0" transform="translate(63.7349 35.2827)"/>
    <path d="M65.8201 41.8712C67.1609 41.8712 67.8922 40.8906 67.8922 39.1745C67.8922 37.4584 67.1609 36.4778 65.8201 36.4778C64.4793 36.4778 63.748 37.4584 63.748 39.1745C63.6261 41.0131 64.3574 41.8712 65.8201 41.8712ZM65.8201 41.0131C64.9669 41.0131 64.6012 40.5228 64.6012 39.2971C64.6012 38.0713 64.9669 37.581 65.6982 37.581C66.5514 37.581 66.7952 38.0713 66.7952 39.2971C66.9171 40.4003 66.5514 41.0131 65.8201 41.0131Z" fill="#F19137"/>
    <path d="M93.4889 40.1551H95.3172C95.4391 39.91 95.4391 39.5422 95.3172 39.2971H93.4889C93.4889 39.5422 93.4889 39.7874 93.4889 40.1551Z" fill="#F19137"/>
    <path d="M183.199 40.8906H180.883V39.5422H182.833C182.955 39.2971 182.955 38.9293 182.833 38.6842H180.883V37.4584H183.077C183.199 37.2133 183.199 36.8455 183.077 36.6004H180.883H179.908V41.7486H180.396H183.077C183.321 41.5034 183.321 41.2583 183.199 40.8906Z" fill="#F19137"/>
    <path d="M186.734 36.723H184.906H184.052V41.7486C184.418 41.8712 184.662 41.8712 185.027 41.7486V37.581H186.856C186.856 37.3358 186.856 36.9681 186.734 36.723Z" fill="#F19137"/>
    <path d="M188.806 36.6004C188.197 36.6004 187.709 36.8455 187.343 37.3358C187.343 37.581 187.587 37.8262 187.831 37.9487C188.075 37.7036 188.44 37.581 188.806 37.581C189.537 37.581 189.903 38.0713 190.025 38.9293H188.197C188.075 39.1745 188.075 39.4196 188.197 39.6648H190.025C189.903 40.5228 189.415 40.8906 188.562 40.8906C188.197 40.8906 187.831 40.768 187.587 40.6454C187.343 40.8906 187.343 41.1357 187.343 41.5034C187.709 41.7486 188.197 41.8712 188.684 41.8712C190.147 41.8712 191 40.8906 191 39.2971C190.878 37.581 190.147 36.6004 188.806 36.6004Z" fill="#F19137"/>
    <path d="M71.6707 36.723V38.6842H69.7205V36.723C69.3548 36.6004 69.111 36.6004 68.7454 36.723V41.7486C69.111 41.8712 69.3548 41.8712 69.7205 41.7486V39.5422H71.6707V41.7486C72.0364 41.8712 72.2801 41.8712 72.6458 41.7486V36.723C72.402 36.6004 72.0364 36.6004 71.6707 36.723Z" fill="#F19137"/>
    <path d="M77.887 36.723H75.8149H74.8398L74.4741 40.2777C74.3522 40.8906 74.2304 41.0131 73.8647 41.0131C73.7428 41.0131 73.6209 41.0131 73.499 41.0131C73.3771 41.2583 73.2552 41.5034 73.2552 41.7486C73.499 41.8712 73.7428 41.8712 73.9866 41.8712C74.8398 41.8712 75.2055 41.3809 75.3274 40.2777L75.693 37.581H76.9119V41.7486C77.2776 41.8712 77.5214 41.8712 77.887 41.7486V36.723Z" fill="#F19137"/>
    <path d="M81.5437 36.723C81.1781 36.6004 80.6905 36.6004 80.203 36.723C79.5935 38.3165 78.9841 40.0325 78.6184 41.7486C78.9841 41.8712 79.3497 41.8712 79.5935 41.7486C79.7154 41.3809 79.7154 41.1357 79.8373 40.768H81.9094C82.0313 41.1357 82.0313 41.3809 82.1532 41.7486C82.5189 41.8712 82.8845 41.8712 83.1283 41.7486C82.7626 40.0325 82.1532 38.3165 81.5437 36.723ZM80.0811 40.0325C80.3248 39.1745 80.5686 38.3165 80.9343 37.581C81.1781 38.3165 81.5437 39.1745 81.7875 40.0325H80.0811Z" fill="#F19137"/>
    <path d="M86.0536 35.3746C86.0536 35.4972 85.9317 35.6198 85.6879 35.6198C85.566 35.6198 85.4441 35.4972 85.3222 35.3746C85.2003 35.252 84.8347 35.252 84.7128 35.3746C84.7128 35.8649 85.0785 36.2327 85.6879 36.2327C86.2973 36.2327 86.5411 35.8649 86.663 35.3746C86.5411 35.3746 86.2973 35.3746 86.0536 35.3746ZM87.6381 41.7486V36.723C87.2725 36.6004 86.9068 36.6004 86.663 36.723C85.9317 37.8262 85.3222 38.9293 84.7128 40.1551C84.7128 39.91 84.7128 39.7874 84.7128 39.5422V36.723C84.469 36.6004 83.9814 36.6004 83.7377 36.723V41.7486C84.1033 41.8712 84.469 41.8712 84.7128 41.7486C85.2003 40.5228 85.9317 39.2971 86.663 38.3165C86.663 38.5616 86.663 38.6842 86.663 38.9293V41.7486C87.0287 41.8712 87.3943 41.8712 87.6381 41.7486Z" fill="#F19137"/>
    <path d="M91.5386 36.723V38.6842H89.5884V36.723C89.2227 36.6004 88.9789 36.6004 88.6133 36.723V41.7486C88.9789 41.8712 89.2227 41.8712 89.5884 41.7486V39.5422H91.5386V41.7486C91.9043 41.8712 92.1481 41.8712 92.5137 41.7486V36.723C92.27 36.6004 91.9043 36.6004 91.5386 36.723Z" fill="#F19137"/>
    <path d="M101.655 36.723V40.8906H99.949V36.723C99.5834 36.6004 99.3396 36.6004 98.9739 36.723V40.8906H97.2675V36.723C96.9018 36.6004 96.658 36.6004 96.2924 36.723V41.8712H96.7799H98.9739H101.655H102.631V36.723C102.265 36.6004 102.021 36.6004 101.655 36.723Z" fill="#F19137"/>
    <path d="M106.165 38.9293C106.653 38.1939 107.14 37.4584 107.506 36.723C107.14 36.6004 106.775 36.6004 106.531 36.723C106.165 37.7036 105.434 38.6842 104.703 39.2971V36.723C104.337 36.6004 104.093 36.6004 103.728 36.723V41.7486C104.093 41.8712 104.337 41.8712 104.703 41.7486V40.5228C105.068 40.2777 105.312 39.91 105.556 39.6648C106.043 40.2777 106.409 41.1357 106.653 41.8712C107.019 41.9938 107.384 41.9938 107.75 41.8712C107.384 40.768 106.775 39.7874 106.165 38.9293Z" fill="#F19137"/>
    <path d="M110.066 41.8712C111.406 41.8712 112.138 40.8906 112.138 39.1745C112.138 37.4584 111.406 36.4778 110.066 36.4778C108.725 36.4778 107.994 37.4584 107.994 39.1745C107.872 41.0131 108.603 41.8712 110.066 41.8712ZM110.066 41.0131C109.212 41.0131 108.969 40.5228 108.969 39.2971C108.969 38.0713 109.334 37.581 110.066 37.581C110.919 37.581 111.163 38.0713 111.163 39.2971C111.163 40.4003 110.797 41.0131 110.066 41.0131Z" fill="#F19137"/>
    <path d="M117.013 36.723H114.941H113.966L113.601 40.2777C113.479 40.8906 113.357 41.0131 112.991 41.0131C112.869 41.0131 112.747 41.0131 112.625 41.0131C112.504 41.2583 112.382 41.5034 112.382 41.7486C112.625 41.8712 112.869 41.8712 113.113 41.8712C113.966 41.8712 114.332 41.3809 114.454 40.2777L114.819 37.581H116.038V41.7486C116.404 41.8712 116.648 41.8712 117.013 41.7486V36.723Z" fill="#F19137"/>
    <path d="M120.548 36.723C120.183 36.6004 119.695 36.6004 119.207 36.723C118.598 38.3165 117.989 40.0325 117.623 41.7486C117.989 41.8712 118.354 41.8712 118.598 41.7486C118.72 41.3809 118.72 41.1357 118.842 40.768H120.914C121.036 41.1357 121.036 41.3809 121.158 41.7486C121.523 41.8712 121.889 41.8712 122.133 41.7486C121.767 40.0325 121.28 38.3165 120.548 36.723ZM119.086 40.0325C119.329 39.1745 119.573 38.3165 119.939 37.581C120.183 38.3165 120.548 39.1745 120.792 40.0325H119.086Z" fill="#F19137"/>
    <path d="M128.959 36.723H126.155H125.18V41.7486C125.546 41.8712 125.79 41.8712 126.155 41.7486V37.581H127.984V41.7486C128.349 41.8712 128.593 41.8712 128.959 41.7486V36.723Z" fill="#F19137"/>
    <path d="M131.884 41.8712C133.225 41.8712 133.956 40.8906 133.956 39.1745C133.956 37.4584 133.225 36.4778 131.884 36.4778C130.543 36.4778 129.812 37.4584 129.812 39.1745C129.812 41.0131 130.421 41.8712 131.884 41.8712ZM131.884 41.0131C131.031 41.0131 130.787 40.5228 130.787 39.2971C130.787 38.0713 131.153 37.581 131.884 37.581C132.737 37.581 132.981 38.0713 132.981 39.2971C132.981 40.4003 132.615 41.0131 131.884 41.0131Z" fill="#F19137"/>
    <path d="M139.441 40.8906H138.832V36.6004H138.344H136.759H135.784L135.419 39.4196C135.297 40.0325 135.175 40.5228 134.931 40.8906H134.322V42.6066C134.565 42.7292 134.931 42.7292 135.175 42.6066V41.7486H138.466V42.6066C138.71 42.7292 139.075 42.7292 139.319 42.6066V40.8906H139.441ZM136.394 39.4196L136.638 37.581H137.856V40.8906H135.906C136.15 40.5228 136.272 40.0325 136.394 39.4196Z" fill="#F19137"/>
    <path d="M142.854 36.723H141.026H140.051V41.7486C140.416 41.8712 140.66 41.8712 141.026 41.7486V37.581H142.854C142.854 37.3358 142.854 36.9681 142.854 36.723Z" fill="#F19137"/>
    <path d="M145.292 41.8712C146.632 41.8712 147.364 40.8906 147.364 39.1745C147.364 37.4584 146.632 36.4778 145.292 36.4778C143.951 36.4778 143.22 37.4584 143.22 39.1745C143.22 41.0131 143.951 41.8712 145.292 41.8712ZM145.292 41.0131C144.438 41.0131 144.195 40.5228 144.195 39.2971C144.195 38.0713 144.56 37.581 145.292 37.581C146.145 37.581 146.389 38.0713 146.389 39.2971C146.511 40.4003 146.145 41.0131 145.292 41.0131Z" fill="#F19137"/>
    <path d="M151.508 36.723H150.167H147.851C147.729 37.0907 147.729 37.3358 147.851 37.7036H149.192V41.7486C149.558 41.8712 149.802 41.8712 150.167 41.7486V37.581H151.508C151.63 37.3358 151.63 36.9681 151.508 36.723Z" fill="#F19137"/>
    <path d="M154.068 41.8712C155.408 41.8712 156.14 40.8906 156.14 39.1745C156.14 37.4584 155.408 36.4778 154.068 36.4778C152.727 36.4778 151.996 37.4584 151.996 39.1745C151.874 41.0131 152.605 41.8712 154.068 41.8712ZM154.068 41.0131C153.214 41.0131 152.971 40.5228 152.971 39.2971C152.971 38.0713 153.336 37.581 154.068 37.581C154.921 37.581 155.165 38.0713 155.165 39.2971C155.165 40.4003 154.799 41.0131 154.068 41.0131Z" fill="#F19137"/>
    <path d="M158.456 41.8712C159.796 41.8712 160.528 41.2583 160.528 40.4003C160.528 39.7874 160.162 39.2971 159.675 39.1745C160.04 39.0519 160.284 38.5616 160.284 38.0713C160.284 37.2133 159.675 36.723 158.578 36.723C157.968 36.723 157.481 36.8455 156.993 37.0907V41.8712C157.481 41.8712 157.968 41.8712 158.456 41.8712ZM157.968 38.8068V37.581C158.212 37.4584 158.334 37.4584 158.578 37.4584C159.065 37.4584 159.431 37.7036 159.431 38.0713C159.431 38.5616 159.187 38.8068 158.578 38.8068H157.968ZM158.578 41.0131C158.334 41.0131 158.09 41.0131 157.968 41.0131V39.5422H158.578C159.187 39.5422 159.553 39.7874 159.553 40.2777C159.553 40.768 159.187 41.0131 158.578 41.0131Z" fill="#F19137"/>
    <path d="M163.697 38.9293C164.184 38.1939 164.672 37.4584 165.038 36.723C164.672 36.6004 164.306 36.6004 164.063 36.723C163.697 37.7036 162.966 38.6842 162.234 39.2971V36.723C161.869 36.6004 161.625 36.6004 161.259 36.723V41.7486C161.625 41.8712 161.869 41.8712 162.234 41.7486V40.5228C162.6 40.2777 162.844 39.91 163.087 39.6648C163.575 40.2777 163.941 41.1357 164.184 41.8712C164.55 41.9938 164.916 41.9938 165.281 41.8712C164.916 40.768 164.428 39.7874 163.697 38.9293Z" fill="#F19137"/>
    <path d="M169.791 41.7486V36.723C169.426 36.6004 169.06 36.6004 168.816 36.723C168.085 37.8262 167.475 38.9293 166.866 40.1551C166.866 39.91 166.866 39.7874 166.866 39.5422V36.723C166.622 36.6004 166.135 36.6004 165.891 36.723V41.7486C166.257 41.8712 166.622 41.8712 166.866 41.7486C167.354 40.5228 168.085 39.2971 168.816 38.3165C168.816 38.5616 168.816 38.6842 168.816 38.9293V41.7486C169.182 41.8712 169.548 41.8712 169.791 41.7486Z" fill="#F19137"/>
    <path d="M175.52 38.9293C176.008 38.1939 176.495 37.4584 176.861 36.723C176.495 36.6004 176.13 36.6004 175.886 36.723C175.52 37.7036 174.789 38.6842 174.058 39.2971V36.723C173.692 36.6004 173.448 36.6004 173.082 36.723V41.7486C173.448 41.8712 173.692 41.8712 174.058 41.7486V40.5228C174.423 40.2777 174.667 39.91 174.911 39.6648C175.398 40.2777 175.764 41.1357 176.008 41.8712C176.373 41.9938 176.739 41.9938 177.105 41.8712C176.739 40.768 176.13 39.7874 175.52 38.9293Z" fill="#F19137"/>
    <rect width="53.8749" height="48" fill="black" fill-opacity="0"/>
    <path fill-rule="evenodd" clip-rule="evenodd" d="M50.9496 31.5748C48.1462 28.02 42.2955 20.9106 40.3453 18.4591C40.3453 17.8462 40.4672 17.1107 40.4672 16.4978C40.4672 13.1883 41.1985 10.369 39.2483 8.04006C39.9796 7.79491 38.517 7.05945 38.6389 6.32399C39.0045 4.97565 38.3951 3.25958 37.0543 2.15639C35.226 0.808052 33.1539 1.17578 31.4474 2.40155C31.2036 2.6467 30.9599 2.89185 30.7161 3.13701C29.1315 2.52412 27.6689 2.27897 25.5967 2.27897C23.6465 2.27897 21.3306 2.40155 19.3804 3.13701C17.5521 0.808052 15.1143 0.0725929 13.1641 1.91124C11.8233 3.25958 11.5795 4.97565 11.7014 6.20142C11.8233 7.42718 10.2387 9.14325 11.3357 9.51098C9.75118 11.8399 10.8482 14.6592 10.8482 16.4978C10.8482 18.4591 10.9701 18.2139 11.092 19.0719C8.89796 22.1364 6.09451 26.1814 3.90051 29.8587V31.207C7.80096 31.4522 14.0173 32.1876 17.3083 33.6586C20.4774 35.0069 24.0122 37.0907 26.3281 39.2971C28.644 37.0907 32.5444 34.7617 35.7135 33.4134C40.9548 31.0844 45.099 31.0844 50.3402 30.7167L50.9496 31.5748Z" fill="#F19137"/>
    <path d="M14.3829 31.8199C15.7237 30.9619 17.1864 30.2264 18.649 29.7361C19.1366 29.6135 19.5023 29.491 19.8679 30.1038C20.5993 31.3296 21.5744 32.5554 22.6714 33.4134C24.9873 35.3746 27.9126 35.3746 30.2285 33.1683C31.2036 32.3102 32.0568 31.3296 32.6663 30.1038C32.9101 29.6135 33.1538 29.491 33.6414 29.7361C34.9822 30.349 36.4448 30.8393 37.6637 31.6973C34.3727 32.8005 31.2036 34.2714 28.4002 36.3552C27.7907 36.8455 27.0594 37.3359 26.4499 37.9487C26.2062 38.1939 25.9624 38.3165 25.7186 37.9487C22.3057 35.1295 18.5272 33.1683 14.3829 31.8199Z" fill="#FABC5D"/>
    <path d="M13.1641 11.4722C13.6516 11.2271 13.6516 10.4916 14.3829 10.369C13.4078 12.5754 12.9203 14.7818 13.1641 17.2333C13.6516 16.9881 13.4078 16.3753 13.8954 16.1301C13.5297 17.3559 13.7735 18.4591 14.0173 19.5623C14.1392 20.0526 13.8954 20.4203 13.6516 20.788C12.3108 22.7492 10.9701 24.9556 9.50739 27.0394C9.87306 27.2846 10.1168 26.7943 10.4825 26.9168C10.3606 27.6523 9.62928 28.02 9.26361 28.5103C8.89795 29.0006 8.53228 29.6135 8.16661 30.1038C7.92283 30.4716 7.67906 30.7167 7.31339 30.7167C6.46017 30.7167 5.60694 30.7167 4.87561 30.7167C4.87561 30.1038 5.11939 29.8587 5.36317 29.6135C7.06961 26.7943 9.01983 24.0976 10.9701 21.4009C11.3357 20.788 11.5795 20.2977 11.4576 19.5623C11.3357 16.6204 11.8233 13.9237 13.1641 11.4722Z" fill="#FABC5D"/>
    <path d="M19.1366 5.95627C19.2585 5.71111 19.6242 5.71111 19.746 5.34338C21.94 4.36277 24.134 4.48535 26.4499 4.60792C27.3032 4.97565 28.2783 4.85308 29.1315 5.22081C29.3753 5.34338 29.7409 5.34338 30.2285 5.58854C29.1315 5.83369 28.2783 5.95627 27.3032 6.07884C27.1813 6.07884 26.8156 6.20142 26.8156 5.95627C26.8156 5.83369 26.9375 5.71111 27.0594 5.58854C25.5967 5.34338 24.3778 6.20142 22.9152 6.20142C21.6963 6.56915 20.3555 6.44657 19.1366 5.95627Z" fill="#FABB5C"/>
    <path d="M17.9177 6.07884C17.1864 6.20142 16.5769 6.32399 15.8456 6.44657C14.9924 6.56915 14.6267 6.8143 14.9924 7.67233C15.1142 7.91749 15.1142 8.28522 15.2361 8.65295C14.3829 8.40779 13.6516 7.91749 13.7735 6.93688C13.8954 5.95626 14.5048 5.2208 15.4799 4.97565C16.455 4.60792 17.0645 4.85308 17.9177 6.07884Z" fill="#D66928"/>
    <path d="M36.201 6.8143C34.7383 6.32399 33.1538 6.20142 31.5692 5.95626C31.9349 5.83369 32.3005 5.95626 32.5443 5.71111C34.1289 4.48535 35.4697 4.97565 36.201 6.8143Z" fill="#D56828"/>
    <path fill-rule="evenodd" clip-rule="evenodd" d="M7.06956 36.1101C6.82578 36.6004 6.82578 36.8455 7.19145 36.6004C7.31333 36.4778 7.55711 36.3552 7.679 36.2327C7.43522 36.2327 7.19145 36.2327 7.06956 36.1101Z" fill="#FBBD5E"/>
    <path fill-rule="evenodd" clip-rule="evenodd" d="M22.5494 10.1239C23.0369 10.1239 23.4026 10.4916 23.4026 10.9819C23.4026 11.4722 23.0369 11.8399 22.5494 11.8399C22.0618 11.8399 21.6962 11.4722 21.6962 10.9819C21.6962 10.4916 22.0618 10.1239 22.5494 10.1239Z" fill="#341A11"/>
    <path fill-rule="evenodd" clip-rule="evenodd" d="M28.522 10.1239C29.0096 10.1239 29.3753 10.4916 29.3753 10.9819C29.3753 11.4722 29.0096 11.8399 28.522 11.8399C28.0345 11.8399 27.6688 11.4722 27.6688 10.9819C27.6688 10.4916 28.0345 10.1239 28.522 10.1239Z" fill="#341A11"/>
    <path fill-rule="evenodd" clip-rule="evenodd" d="M25.9624 13.0657C30.838 13.0657 34.7384 16.6204 34.7384 21.1558C34.7384 25.5685 30.838 33.4134 25.9624 33.4134C21.0868 33.4134 17.1864 25.6911 17.1864 21.1558C17.1864 16.743 21.0868 13.0657 25.9624 13.0657Z" fill="white"/>
    <path fill-rule="evenodd" clip-rule="evenodd" d="M25.8405 14.9044C28.522 14.9044 30.3504 16.0075 30.3504 18.5816C30.3504 21.1558 28.0345 24.0976 25.7186 24.2202C23.4027 24.3427 20.843 21.1558 20.843 18.5816C20.843 16.0075 23.2808 14.9044 25.8405 14.9044Z" fill="#231F20"/>
    <path fill-rule="evenodd" clip-rule="evenodd" d="M21.9401 21.6461C23.5246 19.3171 26.2062 17.7236 29.4972 17.7236C29.741 17.7236 30.1066 17.7236 30.3504 17.7236C30.3504 17.9688 30.3504 18.2139 30.3504 18.4591C30.3504 21.0332 28.0345 23.975 25.7186 24.0976C24.3778 24.0976 22.9152 23.117 21.9401 21.6461Z" fill="#341A11"/>
    <path fill-rule="evenodd" clip-rule="evenodd" d="M25.231 15.7624C25.5967 15.7624 25.8405 15.7624 26.2061 15.885C24.2559 15.885 22.5494 17.4785 22.3057 20.1751C21.94 19.5623 21.8181 18.9494 21.8181 18.3365C21.8181 16.4978 23.4027 15.7624 25.231 15.7624Z" fill="white"/>
    <path d="M35.9573 9.02068C35.8354 9.02068 35.8354 8.8981 35.7135 8.8981C35.7135 9.02068 35.7135 9.26583 35.8354 9.51098C35.8354 10.2464 35.8354 10.8593 35.7135 11.5948C35.5916 11.9625 35.4697 12.3302 35.3478 12.698C34.8603 13.8012 34.0071 14.5366 32.7882 14.9043C32.1787 15.0269 31.4474 15.1495 30.7161 15.1495C29.9847 15.1495 29.2534 15.0269 28.7658 14.9043C28.522 14.7818 28.1564 14.6592 27.9126 14.5366C27.0594 14.0463 26.4499 13.3109 25.9624 12.4528C25.8405 12.2077 25.7186 11.9625 25.5967 11.7174C25.5967 11.8399 25.4748 11.9625 25.4748 12.0851C25.1092 12.9431 24.6216 13.556 24.134 14.0463C23.8903 14.2915 23.6465 14.414 23.4027 14.5366C23.1589 14.6592 22.9152 14.7818 22.5495 14.7818C21.94 15.0269 21.3306 15.0269 20.5993 15.0269C19.8679 15.0269 19.1366 14.9043 18.5272 14.7818C17.9177 14.6592 17.4302 14.2915 17.0645 13.9237C16.5769 13.556 16.3332 13.0657 16.0894 12.5754C15.8456 12.0851 15.7237 11.3496 15.7237 10.4916C15.7237 9.75614 15.7237 9.02068 15.7237 8.53037C15.6018 8.53037 15.6018 8.53037 15.4799 8.65295L14.8705 6.44657C16.455 6.07884 18.2834 5.83369 20.1117 5.83369C22.1838 5.83369 23.4027 6.07884 25.231 6.69172C25.5967 6.8143 25.8405 6.69172 25.9624 6.69172H26.0843C26.2062 6.56915 26.328 6.56915 26.5718 6.56915C26.6937 6.56915 26.8156 6.44657 26.9375 6.44657C27.1813 6.20142 27.425 6.20142 27.6688 6.07884C28.7658 5.71111 30.4723 5.71111 32.1787 5.83369C34.0071 5.95626 35.7135 6.32399 36.8105 6.8143L35.9573 9.02068ZM32.0568 8.16264C30.5942 8.04007 28.8877 7.91749 27.5469 8.53037C26.9375 8.77552 26.6937 9.02068 26.8156 9.75614C26.8156 10.4916 27.0594 11.1045 27.3032 11.5948C27.6688 12.2077 28.1564 12.698 28.6439 13.0657C28.7658 13.1883 29.0096 13.1883 29.1315 13.3109C29.4972 13.4334 29.9847 13.556 30.5942 13.556C31.2036 13.556 31.6912 13.4334 32.1787 13.3109C32.5444 13.1883 32.9101 13.0657 33.1538 12.8205C33.3976 12.5754 33.6414 12.3302 33.7633 11.9625C33.8852 11.8399 33.8852 11.4722 34.0071 11.2271C34.1289 10.6142 34.1289 10.1239 34.1289 9.63356C34.1289 9.51098 34.1289 9.38841 34.1289 9.26583C34.1289 9.14325 34.1289 9.02068 34.1289 9.02068C34.1289 8.8981 34.1289 8.8981 34.1289 8.8981C34.0071 8.65295 34.0071 8.65295 33.7633 8.53037C33.1538 8.16264 32.3006 8.16264 32.0568 8.16264ZM24.6216 8.77552C24.3778 8.77552 24.2559 8.65295 24.0122 8.65295C22.7933 8.28522 21.4525 8.04007 19.9898 8.04007C19.5023 8.04007 18.8928 8.04007 18.2834 8.04007C17.4302 8.16264 17.3083 8.16264 17.3083 9.02068C17.3083 9.75614 17.3083 10.6142 17.4302 11.1045C17.4302 11.4722 17.552 11.7174 17.552 11.8399C17.6739 12.2077 17.9177 12.4528 18.1615 12.698C18.4053 12.9431 18.7709 13.0657 19.1366 13.1883C19.5023 13.3109 20.1117 13.4334 20.7212 13.4334C21.2087 13.4334 21.8182 13.3109 22.1838 13.1883C22.5495 13.0657 22.9152 12.8205 23.1589 12.5754C23.5246 12.3302 23.7684 11.8399 24.134 11.2271C24.3778 10.6142 24.6216 10.0013 24.7435 9.14325C24.6216 9.14325 24.6216 9.02068 24.6216 8.77552Z" fill="#341A11"/>
    <path d="M26.0842 43.8324C23.7683 41.5034 20.4773 39.0519 16.5769 37.0907C10.3606 34.1489 6.46012 34.0263 0 34.2714C0 36.723 1.34078 36.4778 3.04722 36.6004C7.19145 36.723 10.3606 36.9681 14.9923 39.1745C19.3803 41.3809 23.037 44.3227 24.9872 46.6517L26.0842 48L27.1812 46.6517C29.1315 44.3227 32.7881 41.2583 37.1761 39.1745C42.2955 36.723 45.8303 36.2327 50.5839 36.4778C52.8998 36.6004 53.8749 36.2327 53.8749 34.2714C46.8054 34.2714 42.5392 34.0263 35.7135 37.2133C31.6911 39.0519 28.2782 41.626 26.0842 43.8324Z" fill="#341A11"/>
    <path d="M34.3726 18.7042C34.9821 20.1751 34.8602 21.6461 34.4945 23.117C33.7632 26.5491 32.1786 29.6135 29.4971 31.8199C27.0593 33.9037 24.0121 33.6586 21.8181 31.4522C20.3554 28.7555 19.746 25.8137 20.7211 22.7492C20.843 22.2589 21.0868 21.7686 21.4524 21.4009C21.5743 21.2783 21.5743 21.2783 21.6962 21.2783C22.3056 21.6461 22.6713 22.2589 23.1589 22.6267C24.7434 23.975 26.328 23.975 27.9125 22.6267C29.0095 21.6461 29.619 20.5429 29.9846 19.1945C30.2284 18.7042 29.9846 18.0913 30.2284 17.7236C30.8379 17.2333 31.3254 17.601 31.9349 17.7236C32.91 17.9688 33.6413 18.3365 34.3726 18.7042Z" fill="#E7E6E7"/>
    <path d="M22.5495 27.0394L21.5743 26.6717L22.4276 24.833L23.4027 25.2008C23.8902 25.4459 24.3778 25.5685 24.7435 25.6911C26.2061 25.9362 27.425 25.5685 28.522 24.9556C29.619 24.3427 30.3503 23.3621 30.8379 22.3815C30.9598 22.1364 31.0817 21.7686 31.0817 21.5235L31.3255 20.5429L33.2757 20.9106L33.0319 21.8912C32.91 22.2589 32.7881 22.7492 32.6662 23.2396C32.0568 24.5879 31.0817 25.8137 29.619 26.6717C28.1563 27.5297 26.4499 28.02 24.4997 27.6523C23.8902 27.5297 23.2808 27.2846 22.5495 27.0394Z" fill="#341A11"/>
    <path fill-rule="evenodd" clip-rule="evenodd" d="M42.4173 18.7042C43.6362 20.2977 45.5864 22.6267 47.2929 24.7105C48.9993 26.7943 50.7057 28.8781 51.559 29.9813L53.1435 31.9425C51.0714 31.9425 49.1212 32.0651 47.0491 32.1876C42.9048 32.4328 39.2482 32.8005 34.9821 34.7617C32.6662 35.8649 30.4722 37.2133 28.5219 38.8068C27.7906 39.4197 27.1812 40.0325 26.4498 40.6454C26.328 40.768 26.0842 41.0131 25.9623 41.1357C25.8404 41.0131 25.5966 40.8906 25.4747 40.6454C24.8653 40.0325 24.1339 39.4197 23.4026 38.8068C21.4524 37.2133 19.2584 35.8649 16.9425 34.7617C11.5794 32.3102 6.09438 32.1876 0.365601 32.1876C2.07205 29.491 4.14416 26.304 5.8506 23.6073C6.82572 22.1364 7.67894 20.788 8.53216 19.6848C8.53216 19.3171 8.53216 18.8268 8.53216 17.8462C8.53216 16.6204 8.89783 14.6592 9.38538 12.698C9.75105 11.8399 9.99483 11.2271 10.2386 10.4916C9.87294 9.87871 9.62916 9.14325 9.50727 8.28522C9.38538 7.18203 9.50727 5.95627 9.87294 4.7305C10.3605 3.74989 10.9699 2.76928 11.8232 1.78866C12.0669 1.66609 12.1888 1.54351 12.4326 1.29836C13.8953 0.19517 15.6017 -0.172559 17.1863 0.0725936C18.4052 0.317747 19.5022 0.808052 20.4773 1.66609C21.0867 1.54351 21.6962 1.42094 22.1837 1.42094C23.4026 1.29836 24.4996 1.29836 25.4747 1.29836C26.5717 1.29836 27.5468 1.42094 28.5219 1.54351C28.8876 1.66609 29.2533 1.66609 29.6189 1.78866C30.8378 0.930629 32.1786 0.440323 33.6413 0.317747C35.104 0.19517 36.6885 0.685476 38.0293 1.66609C39.1263 2.40155 39.8576 3.50474 40.3452 4.7305C40.8327 5.95627 40.9546 7.30461 40.7108 8.53037C40.589 8.8981 40.4671 9.26583 40.3452 9.63356C40.8327 10.4916 41.1984 11.3496 41.5641 12.2077C42.1735 13.9237 42.5392 15.6398 42.5392 17.4785C42.4173 17.9688 42.4173 18.2139 42.4173 18.7042ZM48.268 30.349C45.5864 27.0394 41.3203 21.8912 39.6138 19.5623C39.6138 18.9494 39.7357 18.3365 39.7357 17.7236C39.7357 14.6592 38.6387 11.7174 36.8104 9.51098C37.298 9.14325 37.7855 8.65295 38.0293 8.04007C38.395 6.8143 37.6636 5.09823 36.4447 4.11762C34.7383 2.76928 32.7881 3.13701 31.0816 4.36277C30.8378 4.60792 30.5941 4.7305 30.3503 4.97565C28.8876 4.48535 27.4249 4.11762 25.4747 4.11762C23.5245 4.11762 21.3305 4.11762 19.6241 4.97565C17.9176 2.76928 15.6017 2.03382 13.7734 3.87247C12.5545 5.09823 12.1888 6.69172 12.3107 7.91749C12.4326 9.02068 12.7983 9.51098 13.8953 9.75614C12.4326 11.9625 11.4575 15.885 11.4575 17.7236C11.4575 19.5623 11.5794 19.4397 11.7013 20.1751C9.62916 23.117 6.9476 27.0394 4.87549 30.4716L7.92272 30.5941C11.5794 30.8393 15.1142 31.6973 18.2833 33.1682C21.2086 34.5166 23.8902 36.2327 26.2061 38.3165C28.4001 36.2327 31.0816 34.5166 34.1288 33.1682C39.0044 30.9619 43.1486 30.5941 48.268 30.349Z" fill="#341A11"/>
</svg>
