<svg width="26" height="16" viewBox="0 0 26 16" fill="none" xmlns="http://www.w3.org/2000/svg">
    <g >
        <path d="M25.7895 7.38876C21.8624 2.48805 17.6223 0 13.1751 0C11.4133 0 9.63016 0.398519 7.86829 1.1794C6.48321 1.79872 5.10874 2.655 3.78734 3.72669C1.55316 5.54157 0.237064 7.35106 0.183995 7.42646C-0.0707327 7.78189 -0.060119 8.26658 0.21053 8.61124C4.13228 13.5173 8.37775 16 12.8249 16C14.5867 16 16.3698 15.6015 18.1317 14.8206C19.5168 14.2013 20.8913 13.345 22.2127 12.2733C24.4468 10.4584 25.7629 8.64894 25.816 8.57354C26.0707 8.21811 26.0601 7.73342 25.7895 7.38876ZM20.9762 10.7923C19.1294 12.2841 16.2212 14.0613 12.8249 14.0613C9.15785 14.0613 5.58105 12.0202 2.18467 7.99192C2.72066 7.35106 3.70243 6.27937 5.01852 5.21306C6.8653 3.72131 9.77344 1.94413 13.1698 1.94413C16.8368 1.94413 20.4136 3.98519 23.81 8.01346C23.274 8.65432 22.2923 9.7314 20.9762 10.7923Z" fill="#7C6F5A"/>
        <path d="M16.5183 7.0333C15.993 7.0333 15.5631 7.46951 15.5631 8.00267C15.5631 9.44057 14.4115 10.6092 12.9946 10.6092C11.5777 10.6092 10.4261 9.44057 10.4261 8.00267C10.4261 6.56477 11.5777 5.39614 12.9946 5.39614C13.52 5.39614 13.9498 4.95992 13.9498 4.42677C13.9498 3.89361 13.52 3.4574 12.9946 3.4574C10.5216 3.4574 8.51562 5.49846 8.51562 8.00267C8.51562 10.5069 10.5216 12.5479 12.9946 12.5479C15.4676 12.5479 17.4736 10.5069 17.4736 8.00267C17.4736 7.46951 17.0437 7.0333 16.5183 7.0333Z" fill="#7C6F5A"/>
    </g>
</svg>
