<svg width="24" height="17" viewBox="0 0 24 17" fill="none" xmlns="http://www.w3.org/2000/svg">
    <g opacity="0.3">
        <rect width="24" height="17" fill="black" fill-opacity="0"/>
        <path d="M10.8377 12.818C13.2943 12.2553 14.7283 11.7632 13.62 9.6883C10.2497 3.37535 12.7269 0 16.2866 0C19.9166 0 22.3329 3.5054 18.9523 9.6883C17.8106 11.7751 19.3269 12.2672 21.7311 12.818C23.8594 13.3059 24 14.337 24 16.1236V17H8.57143C8.57143 14.6668 8.38286 13.3807 10.8377 12.818ZM0 17H6.69343C6.66343 10.0496 9.63857 12.484 9.63857 7.54205C9.63857 5.4077 8.23371 4.25 6.426 4.25C3.756 4.25 1.89857 6.78215 4.42629 11.5167C5.25686 13.0722 3.54257 13.4419 1.69971 13.8635C0.103714 14.229 0 15.0025 0 16.3429V17Z" fill="#7C6F5A"/>
    </g>
</svg>
